<svg xmlns="http://www.w3.org/2000/svg" viewBox="0 0 28 37">
  <defs>
    <filter id="694790db-6d53-4384-9398-ad59be074f2a" x="-25" y="-30" width="150.1" height="160">
      <feGaussianBlur stdDeviation="2" in="SourceGraphic"/>
    </filter>
    <filter id="a182d1c7-950a-4cda-be94-b8bb0c87bdde" x="-109.1" y="-141.2" width="318.2"
        height="382.4">
      <feGaussianBlur stdDeviation="8" in="SourceGraphic"/>
    </filter>
    <mask id="4e980c9e-dcc6-4ac0-b8db-c74349fb58c0" x="0" y="0" width="28" height="36"
        maskUnits="userSpaceOnUse">
      <path
          d="M16.667 28L14 36l-2.667-8h-6.2a5.809 5.809 0 0 1-3.082-.534 3.637 3.637 0 0 1-1.517-1.512A5.809 5.809 0 0 1 0 22.872V5.128a5.809 5.809 0 0 1 .534-3.082A3.637 3.637 0 0 1 2.046.534 5.809 5.809 0 0 1 5.128 0h17.744a5.809 5.809 0 0 1 3.082.534 3.637 3.637 0 0 1 1.512 1.512A5.809 5.809 0 0 1 28 5.128v17.744a5.809 5.809 0 0 1-.534 3.082 3.637 3.637 0 0 1-1.512 1.512 5.809 5.809 0 0 1-3.082.534z"
          fill="#fff"/>
    </mask>
    <mask id="68d55026-ea16-4218-b204-71708aa16025" x="0" y="0" width="28" height="36"
        maskUnits="userSpaceOnUse">
      <circle cx="14" cy="14" r="6" fill="#fff"/>
    </mask>
  </defs>
  <path
      d="M15.054 32.556L14 37l-1.054-4.444C5.73 22.185.736 17 2.3 17h23.4c1.564 0-3.43 5.185-10.646 15.556z"
      fill="#081b33" opacity=".3" filter="url(#694790db-6d53-4384-9398-ad59be074f2a)"/>
  <path
      d="M15.3 21.222L14 25l-1.3-3.778H9.664a3.435 3.435 0 0 1-1.585-.252 2.987 2.987 0 0 1-1-.714 3.648 3.648 0 0 1-.8-1.455l-3.048-8.38c-.307-.842-.269-1.147-.1-1.455a1.737 1.737 0 0 1 1-.714A7.294 7.294 0 0 1 6.616 8h14.768a7.294 7.294 0 0 1 2.487.252 1.737 1.737 0 0 1 1 .714c.171.308.209.613-.1 1.455L21.723 18.8a3.648 3.648 0 0 1-.8 1.455 2.987 2.987 0 0 1-1 .714 3.435 3.435 0 0 1-1.585.252z"
      fill="#081b33" opacity=".5" filter="url(#a182d1c7-950a-4cda-be94-b8bb0c87bdde)"/>
  <path
      d="M16.667 28L14 36l-2.667-8h-6.2a5.809 5.809 0 0 1-3.082-.534 3.637 3.637 0 0 1-1.517-1.512A5.809 5.809 0 0 1 0 22.872V5.128a5.809 5.809 0 0 1 .534-3.082A3.637 3.637 0 0 1 2.046.534 5.809 5.809 0 0 1 5.128 0h17.744a5.809 5.809 0 0 1 3.082.534 3.637 3.637 0 0 1 1.512 1.512A5.809 5.809 0 0 1 28 5.128v17.744a5.809 5.809 0 0 1-.534 3.082 3.637 3.637 0 0 1-1.512 1.512 5.809 5.809 0 0 1-3.082.534z"
      fill="#fafafa"/>
  <g mask="url(#4e980c9e-dcc6-4ac0-b8db-c74349fb58c0)">
    <path fill="#090c20" d="M0 0h28v36H0z"/>
  </g>
  <circle cx="14" cy="14" r="6" fill="#fff"/>
  <g mask="url(#68d55026-ea16-4218-b204-71708aa16025)">
    <path fill="#4aa4cd" d="M0 0h28v36H0z"/>
  </g>
</svg>